<?xml version="1.0" encoding="utf-8"?>
<!-- Generator: Adobe Illustrator 26.0.3, SVG Export Plug-In . SVG Version: 6.00 Build 0)  -->
<svg version="1.1" id="Layer_1" xmlns="http://www.w3.org/2000/svg" xmlns:xlink="http://www.w3.org/1999/xlink" x="0px" y="0px"
	 viewBox="0 0 131.66 30.23" style="enable-background:new 0 0 131.66 30.23;" xml:space="preserve">
<style type="text/css">
	.st0{fill:#060139;}
	.st1{fill:#3E52D4;}
	.st2{fill:#52585E;}
	.st3{fill:#36B24A;}
	.st4{fill:#FAAF40;}
	.st5{fill:#EE3553;}
</style>
<g>
	<g>
		<g>
			<path class="st0" d="M30.49,17.22L27.4,8.83l-1.11-0.17V6.99h4.96v1.65l-1.08,0.19l1.54,4.64l0.24,0.79h0.06l0.26-0.79l1.69-4.63
				l-1.26-0.2V6.99h4.95v1.66l-1.13,0.19l-3.23,8.37H30.49z"/>
			<path class="st0" d="M42.85,17.42c-1.01,0-1.82-0.27-2.42-0.82s-0.9-1.29-0.9-2.23c0-0.64,0.17-1.21,0.52-1.69
				s0.87-0.87,1.55-1.14c0.68-0.28,1.53-0.42,2.53-0.42h1.35v-0.76c0-0.49-0.14-0.89-0.43-1.2s-0.72-0.46-1.29-0.46
				c-0.3,0-0.56,0.04-0.8,0.11S42.52,9,42.33,9.13l-0.22,1.35h-1.98l-0.04-2.66c0.54-0.3,1.12-0.55,1.74-0.74s1.32-0.28,2.09-0.28
				c1.34,0,2.39,0.31,3.17,0.93s1.16,1.51,1.16,2.66v4.22c0,0.14,0,0.28,0,0.41c0,0.14,0.01,0.27,0.03,0.39l1.07,0.15v1.65h-3.42
				c-0.07-0.18-0.14-0.37-0.21-0.57c-0.07-0.2-0.12-0.4-0.15-0.61c-0.33,0.42-0.71,0.75-1.16,1C43.97,17.29,43.45,17.42,42.85,17.42
				z M43.59,15.38c0.38,0,0.75-0.09,1.1-0.26c0.35-0.17,0.61-0.4,0.8-0.69v-1.62h-1.36c-0.61,0-1.06,0.14-1.38,0.42
				c-0.31,0.28-0.47,0.61-0.47,1c0,0.37,0.11,0.65,0.34,0.85C42.86,15.28,43.18,15.38,43.59,15.38z"/>
			<path class="st0" d="M51.16,17.22v-1.65l1.33-0.28V4.42l-1.47-0.28V2.47h4.23v12.81l1.33,0.28v1.65H51.16z"/>
			<path class="st0" d="M58.36,17.22v-1.65l1.33-0.28V8.94l-1.47-0.28V6.99h4.23v8.29l1.32,0.28v1.65H58.36z M59.6,4.83V2.47h2.85
				v2.35H59.6z"/>
			<path class="st0" d="M69.59,17.42c-0.81,0-1.51-0.21-2.09-0.63s-1.03-1-1.34-1.76c-0.31-0.75-0.46-1.63-0.46-2.64v-0.2
				c0-1.08,0.16-2.02,0.47-2.83c0.31-0.81,0.76-1.44,1.34-1.89c0.58-0.45,1.27-0.68,2.08-0.68c0.56,0,1.05,0.11,1.47,0.34
				s0.79,0.54,1.1,0.95V4.42l-1.47-0.28V2.47h1.47h2.76v12.81l1.32,0.28v1.65h-3.71l-0.21-1.25c-0.32,0.47-0.7,0.83-1.15,1.08
				C70.72,17.29,70.2,17.42,69.59,17.42z M70.42,15.27c0.38,0,0.72-0.08,1.01-0.25c0.29-0.16,0.53-0.4,0.73-0.71V9.98
				c-0.19-0.33-0.43-0.58-0.72-0.76s-0.62-0.27-1-0.27c-0.46,0-0.84,0.14-1.13,0.41c-0.29,0.27-0.51,0.65-0.64,1.14
				c-0.14,0.48-0.2,1.05-0.2,1.69v0.2c0,0.89,0.15,1.6,0.45,2.11S69.72,15.27,70.42,15.27z"/>
			<path class="st0" d="M81.5,17.42c-1.01,0-1.82-0.27-2.42-0.82s-0.9-1.29-0.9-2.23c0-0.64,0.17-1.21,0.52-1.69
				s0.87-0.87,1.55-1.14c0.68-0.28,1.53-0.42,2.53-0.42h1.35v-0.76c0-0.49-0.14-0.89-0.43-1.2S83,8.71,82.42,8.71
				c-0.3,0-0.56,0.04-0.8,0.11S81.17,9,80.99,9.13l-0.22,1.35h-1.98l-0.04-2.66c0.54-0.3,1.12-0.55,1.74-0.74S81.8,6.8,82.57,6.8
				c1.34,0,2.39,0.31,3.17,0.93s1.16,1.51,1.16,2.66v4.22c0,0.14,0,0.28,0,0.41c0,0.14,0.01,0.27,0.03,0.39l1.07,0.15v1.65h-3.42
				c-0.07-0.18-0.14-0.37-0.21-0.57c-0.07-0.2-0.12-0.4-0.15-0.61c-0.33,0.42-0.71,0.75-1.16,1C82.62,17.29,82.1,17.42,81.5,17.42z
				 M82.24,15.38c0.38,0,0.75-0.09,1.1-0.26c0.35-0.17,0.61-0.4,0.8-0.69v-1.62h-1.36c-0.61,0-1.06,0.14-1.38,0.42
				c-0.31,0.28-0.47,0.61-0.47,1c0,0.37,0.11,0.65,0.34,0.85C81.51,15.28,81.83,15.38,82.24,15.38z"/>
			<path class="st0" d="M93.98,17.42c-0.95,0-1.68-0.26-2.2-0.79c-0.51-0.52-0.77-1.35-0.77-2.49V8.93H89.6V6.99h1.41v-2.5h2.75v2.5
				h1.88v1.94h-1.88v5.21c0,0.4,0.08,0.68,0.25,0.85c0.17,0.17,0.4,0.26,0.68,0.26c0.15,0,0.32-0.01,0.49-0.03
				c0.18-0.02,0.33-0.05,0.45-0.07l0.24,1.99c-0.28,0.08-0.59,0.15-0.92,0.2C94.62,17.39,94.3,17.42,93.98,17.42z"/>
			<path class="st0" d="M98.08,17.22v-1.65l1.32-0.28V8.94l-1.47-0.28V6.99h4.04l0.1,1.27l0.02,0.23c0.25-0.55,0.56-0.97,0.94-1.26
				c0.37-0.28,0.82-0.43,1.33-0.43c0.16,0,0.34,0.01,0.54,0.04c0.2,0.03,0.37,0.06,0.52,0.11l-0.29,2.54l-1.37-0.08
				c-0.39-0.02-0.71,0.05-0.95,0.2c-0.24,0.15-0.46,0.37-0.65,0.65v5.01l1.32,0.28v1.65H98.08z"/>
			<path class="st1" d="M107.94,17.22V14.6h2.98v2.62H107.94z"/>
			<path class="st0" d="M113.52,17.22v-1.65l1.33-0.28V8.94l-1.47-0.28V6.99h4.23v8.29l1.32,0.28v1.65H113.52z M114.76,4.83V2.47
				h2.85v2.35H114.76z"/>
			<path class="st0" d="M125.7,17.42c-1.01,0-1.88-0.22-2.6-0.66c-0.72-0.44-1.28-1.05-1.66-1.84c-0.38-0.78-0.58-1.69-0.58-2.71
				v-0.2c0-1.01,0.19-1.91,0.58-2.7c0.38-0.78,0.94-1.4,1.66-1.84s1.58-0.67,2.58-0.67c1.01,0,1.88,0.22,2.6,0.67
				c0.72,0.44,1.27,1.06,1.65,1.84c0.38,0.78,0.58,1.68,0.58,2.7v0.2c0,1.02-0.19,1.92-0.58,2.71c-0.38,0.78-0.94,1.4-1.65,1.84
				C127.56,17.2,126.7,17.42,125.7,17.42z M125.7,15.3c0.48,0,0.87-0.13,1.17-0.39c0.3-0.26,0.53-0.62,0.67-1.08
				c0.14-0.46,0.22-1,0.22-1.62v-0.2c0-0.6-0.07-1.14-0.22-1.6c-0.15-0.46-0.37-0.83-0.68-1.09s-0.7-0.39-1.19-0.39
				c-0.47,0-0.86,0.13-1.17,0.39s-0.53,0.62-0.68,1.09c-0.14,0.46-0.21,1-0.21,1.6v0.2c0,0.62,0.07,1.16,0.21,1.63
				c0.14,0.47,0.37,0.83,0.68,1.08C124.82,15.17,125.21,15.3,125.7,15.3z"/>
		</g>
	</g>
	<g>
		<g>
			<path class="st2" d="M27.08,22.95h0.23v4.79h-0.23V22.95z"/>
			<path class="st2" d="M35.45,22.66v5.07h-0.22v-0.97c-0.13,0.31-0.33,0.55-0.61,0.73s-0.58,0.26-0.93,0.26
				c-0.32,0-0.62-0.08-0.88-0.23c-0.26-0.15-0.47-0.37-0.62-0.64c-0.15-0.27-0.23-0.58-0.23-0.93s0.08-0.66,0.23-0.93
				c0.15-0.27,0.36-0.49,0.62-0.64c0.26-0.15,0.56-0.23,0.88-0.23c0.34,0,0.65,0.09,0.92,0.26c0.27,0.17,0.47,0.41,0.61,0.72v-2.48
				H35.45z M34.48,27.35c0.23-0.13,0.41-0.32,0.54-0.56c0.13-0.24,0.2-0.52,0.2-0.83c0-0.31-0.07-0.58-0.2-0.82
				c-0.13-0.24-0.31-0.43-0.54-0.56c-0.23-0.13-0.49-0.2-0.78-0.2c-0.29,0-0.55,0.07-0.78,0.2c-0.23,0.13-0.41,0.32-0.54,0.56
				c-0.13,0.24-0.2,0.51-0.2,0.82c0,0.31,0.07,0.59,0.2,0.83c0.13,0.24,0.31,0.43,0.54,0.56c0.23,0.13,0.49,0.2,0.78,0.2
				C33.99,27.55,34.25,27.48,34.48,27.35z"/>
			<path class="st2" d="M43.31,25.99H40.2c0,0.3,0.08,0.57,0.21,0.81c0.14,0.24,0.33,0.42,0.56,0.55c0.24,0.13,0.51,0.2,0.8,0.2
				c0.24,0,0.46-0.04,0.67-0.13s0.37-0.22,0.51-0.39l0.14,0.15c-0.16,0.19-0.35,0.33-0.58,0.43c-0.23,0.1-0.47,0.15-0.74,0.15
				c-0.35,0-0.66-0.08-0.93-0.23c-0.27-0.15-0.48-0.37-0.64-0.64s-0.23-0.58-0.23-0.93s0.07-0.66,0.22-0.93s0.34-0.49,0.6-0.64
				c0.26-0.15,0.54-0.23,0.85-0.23c0.31,0,0.59,0.08,0.84,0.23s0.45,0.36,0.6,0.63c0.15,0.27,0.22,0.57,0.22,0.92V25.99z
				 M40.93,24.55c-0.21,0.12-0.38,0.29-0.51,0.52c-0.13,0.22-0.2,0.47-0.21,0.74h2.89c-0.02-0.27-0.09-0.52-0.22-0.74
				c-0.13-0.22-0.3-0.39-0.51-0.52s-0.45-0.18-0.71-0.18C41.39,24.36,41.15,24.43,40.93,24.55z"/>
			<path class="st2" d="M49.88,24.49c0.23,0.22,0.34,0.54,0.34,0.95v2.3H50v-0.71c-0.11,0.23-0.28,0.41-0.51,0.54s-0.5,0.2-0.81,0.2
				c-0.4,0-0.71-0.09-0.93-0.27c-0.23-0.18-0.34-0.42-0.34-0.72c0-0.29,0.1-0.52,0.31-0.7c0.21-0.18,0.53-0.27,0.98-0.27h1.29v-0.35
				c0-0.35-0.09-0.62-0.28-0.8s-0.46-0.27-0.82-0.27c-0.25,0-0.49,0.04-0.7,0.13c-0.22,0.09-0.41,0.2-0.56,0.35l-0.12-0.16
				c0.17-0.16,0.38-0.29,0.63-0.38c0.24-0.09,0.5-0.14,0.77-0.14C49.33,24.16,49.66,24.27,49.88,24.49z M49.99,26.71v-0.74H48.7
				c-0.37,0-0.64,0.07-0.81,0.21c-0.17,0.14-0.26,0.33-0.26,0.56c0,0.26,0.09,0.46,0.28,0.6c0.19,0.15,0.45,0.22,0.78,0.22
				C49.33,27.56,49.77,27.28,49.99,26.71z"/>
			<path class="st2" d="M61.94,27.51c-0.08,0.08-0.19,0.14-0.31,0.18c-0.13,0.04-0.26,0.07-0.4,0.07c-0.29,0-0.51-0.08-0.67-0.24
				s-0.24-0.38-0.24-0.67v-2.46h-0.67v-0.2h0.67v-0.78h0.23v0.78h1.17v0.2h-1.17v2.43c0,0.24,0.06,0.43,0.18,0.55
				c0.12,0.13,0.29,0.19,0.52,0.19c0.23,0,0.42-0.07,0.58-0.21L61.94,27.51z"/>
			<path class="st2" d="M66.67,27.53c-0.27-0.15-0.48-0.37-0.63-0.64s-0.23-0.58-0.23-0.93s0.08-0.66,0.23-0.93s0.36-0.49,0.63-0.64
				c0.27-0.15,0.56-0.23,0.89-0.23c0.33,0,0.63,0.08,0.9,0.23c0.26,0.15,0.47,0.37,0.62,0.64s0.23,0.58,0.23,0.93
				s-0.08,0.66-0.23,0.93s-0.36,0.49-0.62,0.64c-0.26,0.15-0.56,0.23-0.9,0.23C67.24,27.76,66.94,27.68,66.67,27.53z M68.34,27.35
				c0.23-0.13,0.41-0.32,0.54-0.56c0.13-0.24,0.2-0.52,0.2-0.83c0-0.31-0.07-0.58-0.2-0.82c-0.13-0.24-0.31-0.43-0.54-0.56
				c-0.23-0.13-0.49-0.2-0.78-0.2c-0.29,0-0.55,0.07-0.78,0.2c-0.23,0.13-0.41,0.32-0.54,0.56c-0.13,0.24-0.2,0.51-0.2,0.82
				c0,0.31,0.07,0.59,0.2,0.83c0.13,0.24,0.31,0.43,0.54,0.56c0.23,0.13,0.49,0.2,0.78,0.2C67.85,27.55,68.11,27.48,68.34,27.35z"/>
			<path class="st2" d="M80.02,23.16h-1.76v-0.21H82v0.21h-1.76v4.57h-0.23V23.16z"/>
			<path class="st2" d="M86.83,24.39c0.23-0.15,0.53-0.23,0.87-0.23v0.23h-0.06c-0.41,0-0.73,0.13-0.96,0.39s-0.35,0.62-0.35,1.07
				v1.89H86.1v-3.55h0.22v0.85C86.43,24.76,86.6,24.54,86.83,24.39z"/>
			<path class="st2" d="M94.24,24.49c0.23,0.22,0.34,0.54,0.34,0.95v2.3h-0.22v-0.71c-0.11,0.23-0.28,0.41-0.51,0.54
				s-0.5,0.2-0.81,0.2c-0.4,0-0.71-0.09-0.93-0.27c-0.23-0.18-0.34-0.42-0.34-0.72c0-0.29,0.1-0.52,0.31-0.7
				c0.21-0.18,0.53-0.27,0.98-0.27h1.29v-0.35c0-0.35-0.09-0.62-0.28-0.8s-0.46-0.27-0.82-0.27c-0.25,0-0.49,0.04-0.7,0.13
				c-0.22,0.09-0.41,0.2-0.56,0.35l-0.12-0.16c0.17-0.16,0.38-0.29,0.63-0.38c0.24-0.09,0.5-0.14,0.77-0.14
				C93.69,24.16,94.02,24.27,94.24,24.49z M94.36,26.71v-0.74h-1.29c-0.37,0-0.64,0.07-0.81,0.21C92.08,26.32,92,26.51,92,26.74
				c0,0.26,0.09,0.46,0.28,0.6c0.19,0.15,0.45,0.22,0.78,0.22C93.69,27.56,94.13,27.28,94.36,26.71z"/>
			<path class="st2" d="M99.94,27.53c-0.27-0.15-0.48-0.37-0.63-0.64c-0.15-0.27-0.23-0.58-0.23-0.93s0.08-0.66,0.23-0.93
				c0.15-0.27,0.36-0.49,0.63-0.64c0.27-0.15,0.57-0.23,0.91-0.23c0.27,0,0.52,0.05,0.75,0.15s0.42,0.25,0.56,0.46l-0.17,0.14
				c-0.13-0.18-0.29-0.31-0.49-0.4c-0.2-0.09-0.42-0.14-0.65-0.14c-0.29,0-0.56,0.07-0.79,0.2c-0.24,0.13-0.42,0.32-0.55,0.56
				c-0.13,0.24-0.2,0.51-0.2,0.82c0,0.31,0.07,0.59,0.2,0.83c0.13,0.24,0.32,0.43,0.55,0.56c0.23,0.13,0.5,0.2,0.79,0.2
				c0.24,0,0.45-0.04,0.65-0.14c0.2-0.09,0.36-0.23,0.49-0.4l0.17,0.14c-0.15,0.2-0.33,0.35-0.56,0.46s-0.48,0.15-0.75,0.15
				C100.51,27.76,100.21,27.68,99.94,27.53z"/>
			<path class="st2" d="M108.37,27.51c-0.08,0.08-0.19,0.14-0.31,0.18c-0.13,0.04-0.26,0.07-0.4,0.07c-0.29,0-0.51-0.08-0.67-0.24
				s-0.24-0.38-0.24-0.67v-2.46h-0.67v-0.2h0.67v-0.78h0.23v0.78h1.17v0.2h-1.17v2.43c0,0.24,0.06,0.43,0.18,0.55
				c0.12,0.13,0.29,0.19,0.52,0.19c0.23,0,0.42-0.07,0.58-0.21L108.37,27.51z"/>
			<path class="st2" d="M112.74,23.19c-0.05-0.04-0.07-0.09-0.07-0.15c0-0.06,0.02-0.12,0.07-0.16c0.04-0.04,0.1-0.07,0.16-0.07
				c0.06,0,0.11,0.02,0.16,0.07c0.05,0.04,0.07,0.09,0.07,0.15c0,0.06-0.02,0.11-0.07,0.16c-0.04,0.05-0.1,0.07-0.16,0.07
				S112.79,23.23,112.74,23.19z M112.79,24.19h0.23v3.55h-0.23V24.19z"/>
			<path class="st2" d="M118.4,27.53c-0.27-0.15-0.48-0.37-0.63-0.64s-0.23-0.58-0.23-0.93s0.08-0.66,0.23-0.93s0.36-0.49,0.63-0.64
				c0.27-0.15,0.56-0.23,0.89-0.23c0.33,0,0.63,0.08,0.9,0.23c0.26,0.15,0.47,0.37,0.62,0.64s0.23,0.58,0.23,0.93
				s-0.08,0.66-0.23,0.93s-0.36,0.49-0.62,0.64c-0.26,0.15-0.56,0.23-0.9,0.23C118.96,27.76,118.67,27.68,118.4,27.53z
				 M120.07,27.35c0.23-0.13,0.41-0.32,0.54-0.56c0.13-0.24,0.2-0.52,0.2-0.83c0-0.31-0.07-0.58-0.2-0.82
				c-0.13-0.24-0.31-0.43-0.54-0.56c-0.23-0.13-0.49-0.2-0.78-0.2c-0.29,0-0.55,0.07-0.78,0.2c-0.23,0.13-0.41,0.32-0.54,0.56
				c-0.13,0.24-0.2,0.51-0.2,0.82c0,0.31,0.07,0.59,0.2,0.83c0.13,0.24,0.31,0.43,0.54,0.56c0.23,0.13,0.49,0.2,0.78,0.2
				C119.58,27.55,119.84,27.48,120.07,27.35z"/>
			<path class="st2" d="M128.29,24.54c0.25,0.26,0.38,0.63,0.38,1.1v2.08h-0.23v-2.07c0-0.42-0.11-0.74-0.32-0.96
				c-0.21-0.22-0.51-0.33-0.91-0.33c-0.44,0-0.79,0.13-1.05,0.39c-0.25,0.26-0.38,0.61-0.38,1.06v1.91h-0.23v-3.55h0.22v0.87
				c0.11-0.28,0.3-0.5,0.55-0.66c0.25-0.16,0.55-0.24,0.91-0.24C127.69,24.16,128.03,24.29,128.29,24.54z"/>
		</g>
	</g>
	<circle class="st3" cx="18.06" cy="12" r="4.73"/>
	<path class="st4" d="M13.33,12c0,2.01-1.63,3.63-3.63,3.63S6.06,14.01,6.06,12S7.69,8.37,9.7,8.37S13.33,10,13.33,12z"/>
	<path class="st5" d="M6.06,12c0,1.36-1.1,2.46-2.46,2.46c-1.36,0-2.46-1.1-2.46-2.46s1.1-2.46,2.46-2.46
		C4.96,9.55,6.06,10.65,6.06,12z"/>
</g>
</svg>
