<svg width="50" height="15" viewBox="0 0 50 15" fill="none" xmlns="http://www.w3.org/2000/svg">
<path d="M49.2679 12.3627C49.2679 13.6862 48.2006 14.7535 46.8771 14.7535C45.5537 14.7535 44.4863 13.6862 44.4863 12.3627C44.4863 11.0393 45.5537 9.97192 46.8771 9.97192C48.2006 10.0146 49.2679 11.0393 49.2679 12.3627Z" fill="white"/>
<path d="M9.77554 5.06215C8.19589 5.06215 6.3174 6.0014 5.46354 7.96528V0.792847H0.724609V14.4119H5.46354V10.2707C5.46354 9.37415 6.18932 8.64837 7.08587 8.64837C7.98243 8.64837 8.70821 9.37415 8.70821 10.2707V14.4119H13.4471V8.90453C13.4898 6.47102 11.9956 5.06215 9.77554 5.06215Z" fill="white"/>
<path d="M17.5454 14.4119H19.9362V0.792847H15.1973V12.0638C15.1973 13.3446 16.2646 14.4119 17.5454 14.4119Z" fill="white"/>
<path d="M28.5611 10.8258C28.3476 11.082 28.0061 11.2101 27.6645 11.2101C26.9814 11.2101 26.4264 10.6551 26.4264 9.97196V8.56309H28.5611V8.39232V5.31842H26.4264V1.43335L21.6875 2.92761V10.9539C21.6875 12.8324 22.1998 14.7536 25.8714 14.7536C27.2803 14.7536 28.3903 14.4974 29.3296 14.0278L28.5611 10.8258Z" fill="white"/>
<path d="M39.3185 5.06215C37.7389 5.06215 35.8604 6.0014 35.0065 7.96528V0.792847H30.2676V14.4119H35.0065V10.2707C35.0065 9.37415 35.7323 8.64837 36.6288 8.64837C37.5254 8.64837 38.2939 9.33146 38.2939 10.228V14.3692H43.0328V8.90453C43.0328 6.47102 41.5385 5.06215 39.3185 5.06215Z" fill="white"/>
</svg>
